<?xml version="1.0" standalone="no"?>
<!DOCTYPE svg PUBLIC "-//W3C//DTD SVG 20010904//EN"
 "http://www.w3.org/TR/2001/REC-SVG-20010904/DTD/svg10.dtd">
<svg version="1.0" xmlns="http://www.w3.org/2000/svg"
 width="200.000000pt" height="200.000000pt" viewBox="0 0 200.000000 200.000000"
 preserveAspectRatio="xMidYMid meet">

<g transform="translate(0.000000,200.000000) scale(0.100000,-0.100000)"
fill="#000000" stroke="none">
<path d="M995 1318 c-2 -7 -6 -31 -7 -52 -3 -39 -4 -40 -118 -106 l-115 -67
-3 -127 c-2 -114 -1 -130 18 -155 19 -27 205 -141 230 -141 25 0 211 113 230
140 18 26 20 44 20 207 0 208 11 184 -126 262 -92 52 -121 61 -129 39z m136
-65 l99 -58 0 -177 c0 -106 -4 -178 -10 -178 -5 0 -21 5 -35 12 -44 20 -55 56
-55 172 0 113 -2 118 -61 150 -19 10 -40 30 -47 44 -15 33 -16 92 -1 92 7 0
56 -26 110 -57z m-153 -75 c7 -7 12 -29 12 -49 0 -34 -4 -39 -57 -71 l-58 -34
-3 -54 c-3 -66 -17 -97 -54 -116 -48 -25 -49 -22 -46 107 l3 121 90 53 c103
61 97 59 113 43z m132 -153 c0 -120 -10 -147 -69 -181 l-41 -23 -41 23 c-51
29 -71 67 -67 125 3 43 5 46 61 78 55 33 57 35 57 77 0 23 3 45 6 48 3 3 25
-5 50 -19 l44 -25 0 -103z m-152 -202 l42 -24 43 24 c50 29 100 32 139 9 15
-9 28 -19 28 -22 0 -8 -197 -120 -210 -120 -13 0 -210 112 -210 120 0 3 12 13
28 22 37 23 89 20 140 -9z"/>
</g>
</svg>
